USFL
nRows=279
nColumns=2
inDegrees=yes
endheader
time	tib_ant_r	
3.39315	 50.439758	
3.42641	 50.448399	
3.45968	 50.450949	
3.49294	 50.450929	
3.52621	 50.448404	
3.55948	 50.436315	
3.59274	 50.426895	
3.62601	 50.432163	
3.65927	 50.445859	
3.69254	 50.445718	
3.72581	 50.475376	
3.75907	 50.486201	
3.79234	 50.451641	
3.8256	 50.447979	
3.85887	 50.431828	
3.89214	 50.432234	
3.9254	 50.431997	
3.95867	 50.449786	
3.99194	 50.433981	
4.0252	 50.418091	
4.05847	 50.418677	
4.09173	 50.413149	
4.125	 50.407396	
4.15827	 50.419505	
4.19153	 50.430196	
4.2248	 50.421570	
4.25806	 50.439929	
4.29133	 50.440374	
4.3246	 50.450092	
4.35786	 50.443459	
4.39113	 50.498485	
4.4244	 50.488831	
4.45766	 50.506832	
4.49093	 50.518104	
4.52419	 50.508915	
4.55746	 50.498836	
4.59073	 50.502231	
4.62399	 50.509387	
4.65726	 50.509394	
4.69052	 50.492343	
4.72379	 50.502266	
4.75706	 50.522786	
4.79032	 50.528524	
4.82359	 50.517622	
4.85685	 50.530841	
4.89012	 50.531481	
4.92339	 50.533983	
4.95665	 50.506537	
4.98992	 50.512624	
5.02319	 50.504183	
5.05645	 50.469474	
5.08972	 50.426599	
5.12298	 50.426962	
5.15625	 50.438619	
5.18952	 50.448666	
5.22278	 50.442246	
5.25605	 50.445447	
5.28931	 50.442769	
5.32258	 50.431223	
5.35585	 50.431214	
5.38911	 50.435958	
5.42238	 50.431090	
5.45565	 50.402806	
5.48891	 50.409318	
5.52218	 50.436506	
5.55544	 50.434548	
5.58871	 50.445640	
5.62198	 50.440120	
5.65524	 50.418329	
5.68851	 50.394541	
5.72177	 50.375824	
5.75504	 50.331385	
5.78831	 50.339054	
5.82157	 50.379594	
5.85484	 50.468001	
5.8881	 50.322735	
5.92137	 49.927646	
5.95464	 49.569774	
5.9879	 48.591740	
6.02117	 47.482266	
6.05444	 46.901590	
6.0877	 46.355111	
6.12097	 46.328931	
6.15423	 46.024846	
6.1875	 45.997318	
6.22077	 45.603586	
6.25403	 45.294063	
6.2873	 44.980935	
6.32056	 44.912661	
6.35383	 44.607356	
6.3871	 44.324675	
6.42036	 44.326149	
6.45363	 44.375813	
6.4869	 44.339841	
6.52016	 44.464555	
6.55343	 44.510183	
6.58669	 44.415765	
6.61996	 44.348415	
6.65323	 44.406809	
6.68649	 44.359006	
6.71976	 44.320465	
6.75302	 44.385820	
6.78629	 44.390127	
6.81956	 44.217120	
6.85282	 44.221139	
6.88609	 44.260620	
6.91935	 44.253978	
6.95262	 44.416349	
6.98589	 44.747229	
7.01915	 44.735325	
7.05242	 44.828666	
7.08569	 44.773681	
7.11895	 44.819637	
7.15222	 44.954505	
7.18548	 45.191981	
7.21875	 44.922715	
7.25202	 45.021152	
7.28528	 45.058444	
7.31855	 45.113022	
7.35181	 45.083192	
7.38508	 45.002253	
7.41835	 45.014231	
7.45161	 45.042302	
7.48488	 45.250342	
7.51815	 45.203821	
7.55141	 45.038961	
7.58468	 45.270735	
7.61794	 45.351961	
7.65121	 45.082204	
7.68448	 45.091501	
7.71774	 45.230079	
7.75101	 45.197801	
7.78427	 45.324956	
7.81754	 45.335980	
7.85081	 45.285526	
7.88407	 45.275309	
7.91734	 45.427176	
7.9506	 45.371712	
7.98387	 45.359693	
8.01714	 45.442226	
8.0504	 45.451718	
8.08367	 45.441723	
8.11694	 45.504297	
8.1502	 45.499628	
8.18347	 45.495484	
8.21673	 45.526529	
8.25	 45.505859	
8.28327	 45.436916	
8.31653	 45.425055	
8.3498	 45.578315	
8.38306	 45.545302	
8.41633	 45.448329	
8.4496	 45.505955	
8.48286	 45.467989	
8.51613	 45.375927	
8.5494	 45.435528	
8.58266	 45.411118	
8.61593	 45.251777	
8.64919	 45.214013	
8.68246	 45.263159	
8.71573	 45.216396	
8.74899	 45.134121	
8.78226	 45.104150	
8.81552	 45.039682	
8.84879	 44.995924	
8.88206	 44.977482	
8.91532	 44.897299	
8.94859	 44.861682	
8.98185	 44.826772	
9.01512	 44.819696	
9.04839	 44.822321	
9.08165	 44.813477	
9.11492	 44.790052	
9.14819	 44.855196	
9.18145	 44.822220	
9.21472	 44.867018	
9.24798	 44.893020	
9.28125	 44.892307	
9.31452	 44.897760	
9.34778	 44.830756	
9.38105	 44.835204	
9.41431	 44.835259	
9.44758	 44.801559	
9.48085	 44.826438	
9.51411	 44.851511	
9.54738	 44.817235	
9.58065	 44.858562	
9.61391	 44.880051	
9.64718	 44.864947	
9.68044	 44.862765	
9.71371	 44.870792	
9.74698	 44.950277	
9.78024	 44.863051	
9.81351	 44.829276	
9.84677	 44.862082	
9.88004	 44.851917	
9.91331	 44.793567	
9.94657	 44.890237	
9.97984	 44.969974	
10.0131	 44.911619	
10.0464	 44.931488	
10.0796	 44.995452	
10.1129	 44.942772	
10.1462	 44.927301	
10.1794	 44.940373	
10.2127	 45.038640	
10.246	 44.957452	
10.2792	 45.031512	
10.3125	 45.048742	
10.3458	 44.977532	
10.379	 44.956386	
10.4123	 44.980360	
10.4456	 44.871422	
10.4788	 44.858353	
10.5121	 44.914054	
10.5454	 44.888783	
10.5786	 44.738368	
10.6119	 44.652288	
10.6452	 44.590416	
10.6784	 44.580934	
10.7117	 44.564745	
10.745	 44.536574	
10.7782	 44.479682	
10.8115	 44.530954	
10.8448	 44.893746	
10.878	 45.551431	
10.9113	 46.015036	
10.9446	 46.284733	
10.9778	 46.759040	
11.0111	 46.682964	
11.0444	 46.984674	
11.0776	 47.053737	
11.1109	 47.063029	
11.1442	 47.112448	
11.1774	 47.140853	
11.2107	 47.044861	
11.244	 47.018415	
11.2772	 47.011632	
11.3105	 46.960892	
11.3437	 47.060317	
11.377	 47.278997	
11.4103	 47.274282	
11.4435	 47.310399	
11.4768	 47.317274	
11.5101	 47.386290	
11.5433	 47.378535	
11.5766	 47.418925	
11.6099	 47.430235	
11.6431	 47.442669	
11.6764	 47.425819	
11.7097	 47.425649	
11.7429	 47.437136	
11.7762	 47.437092	
11.8095	 47.527448	
11.8427	 47.487408	
11.876	 47.484090	
11.9093	 47.474146	
11.9425	 47.503307	
11.9758	 47.452229	
12.0091	 47.456675	
12.0423	 47.373417	
12.0756	 47.353931	
12.1089	 47.407107	
12.1421	 47.425361	
12.1754	 47.413073	
12.2087	 47.460690	
12.2419	 47.538088	
12.2752	 47.681257	
12.3085	 47.654479	
12.3417	 47.502646	
12.375	 47.617671	
12.4083	 47.684308	
12.4415	 47.683867	
12.4748	 47.671530	
12.5081	 47.608082	
12.5413	 47.641001	
12.5746	 47.693567	
12.6079	 47.701107	
12.6411	 47.727959	
